<svg xmlns="http://www.w3.org/2000/svg" width="98" height="98" viewBox="0 0 98 98" version="1.1"><path d="M 35 75.500 L 35 94 53.740 94 L 72.480 94 54 75.500 C 43.836 65.325, 35.403 57, 35.260 57 C 35.117 57, 35 65.325, 35 75.500" stroke="none" fill="#acacac" fill-rule="evenodd"/><path d="M 48.500 49 C 73.245 73.750, 93.606 94, 93.746 94 C 93.886 94, 94 73.750, 94 49 L 94 4 84.500 4 L 75 4 75 27.242 L 75 50.484 51.742 27.242 L 28.484 4 15.996 4 L 3.508 4 48.500 49 M 4 60 L 4 94 13.500 94 L 23 94 22.986 69.250 L 22.973 44.500 13.844 35.250 C 8.823 30.163, 4.554 26, 4.358 26 C 4.161 26, 4 41.300, 4 60" stroke="none" fill="#fc5c24" fill-rule="evenodd"/></svg>